<svg width="59" height="59" viewBox="0 0 59 59" fill="none" xmlns="http://www.w3.org/2000/svg">
<path d="M57.6158 42.7173L42.4538 27.5553L49.9029 20.1061C50.5621 19.4469 50.8258 18.524 50.6281 17.667C50.4303 16.8101 49.7711 16.0849 48.9141 15.7553L4.15322 0.791059C3.23031 0.46145 2.17556 0.725138 1.45042 1.45028C0.725282 2.17542 0.527517 3.23017 0.791204 4.15307L15.6895 48.848C15.9532 49.705 16.6784 50.3642 17.6013 50.562C18.4582 50.7598 19.4471 50.4961 20.0404 49.8369L27.4895 42.3877L42.6515 57.5497C43.1789 58.0771 43.8381 58.3408 44.4973 58.3408C45.1566 58.3408 45.8158 58.0771 46.3432 57.5497L57.5499 46.343C58.6046 45.4201 58.6046 43.7061 57.6158 42.7173Z" fill="white" stroke="black" stroke-width="2" stroke-miterlimit="10"/>
</svg>
