<svg width="21" height="22" viewBox="0 0 21 22" fill="none" xmlns="http://www.w3.org/2000/svg">
<path d="M10.5 0.511475C8.4233 0.511475 6.39323 1.12729 4.66652 2.28104C2.9398 3.4348 1.59399 5.07467 0.799269 6.9933C0.00454956 8.91192 -0.203385 11.0231 0.201759 13.0599C0.606904 15.0967 1.60693 16.9676 3.07538 18.4361C4.54383 19.9045 6.41475 20.9046 8.45156 21.3097C10.4884 21.7149 12.5996 21.5069 14.5182 20.7122C16.4368 19.9175 18.0767 18.5717 19.2304 16.845C20.3842 15.1182 21 13.0882 21 11.0115C20.9968 8.22767 19.8896 5.5588 17.9211 3.59036C15.9527 1.62192 13.2838 0.514651 10.5 0.511475V0.511475ZM11.625 16.2615C11.625 16.5598 11.5065 16.846 11.2955 17.057C11.0845 17.2679 10.7984 17.3865 10.5 17.3865C10.2016 17.3865 9.91549 17.2679 9.70451 17.057C9.49353 16.846 9.375 16.5598 9.375 16.2615V11.0115C9.375 10.7131 9.49353 10.427 9.70451 10.216C9.91549 10.005 10.2016 9.88647 10.5 9.88647C10.7984 9.88647 11.0845 10.005 11.2955 10.216C11.5065 10.427 11.625 10.7131 11.625 11.0115V16.2615ZM10.5 8.01147C10.2033 8.01147 9.91332 7.9235 9.66665 7.75868C9.41997 7.59385 9.22771 7.35959 9.11418 7.0855C9.00065 6.81141 8.97095 6.50981 9.02882 6.21884C9.0867 5.92787 9.22956 5.66059 9.43934 5.45081C9.64912 5.24103 9.9164 5.09817 10.2074 5.0403C10.4983 4.98242 10.7999 5.01212 11.074 5.12565C11.3481 5.23919 11.5824 5.43144 11.7472 5.67812C11.912 5.92479 12 6.2148 12 6.51147C12 6.9093 11.842 7.29083 11.5607 7.57213C11.2794 7.85344 10.8978 8.01147 10.5 8.01147Z" fill="black"/>
</svg>
